<svg t="1599028499663" class="icon" viewBox="0 0 1024 1024" version="1.1" xmlns="http://www.w3.org/2000/svg" p-id="5961" width="200" height="200"><path d="M512 512m-512 0a512 512 0 1 0 1024 0 512 512 0 1 0-1024 0Z" fill="#F49E34" p-id="5962"></path><path d="M650.604434 467.192532L522.455076 342.826916a14.935823 14.935823 0 0 0-20.910152 0L373.395566 467.192532a15.234539 15.234539 0 0 1-9.957215 4.281603h-59.743291a14.935823 14.935823 0 0 0-14.935822 14.935822v285.971218A14.139245 14.139245 0 0 0 302.101906 786.619992h124.365616a15.035395 15.035395 0 0 0 14.935823-15.035395v-95.887981a34.352392 34.352392 0 0 1 34.451964-34.352392h72.289382a34.352392 34.352392 0 0 1 34.451964 34.352392v95.788409A15.035395 15.035395 0 0 0 597.432905 786.619992h123.469468a15.035395 15.035395 0 0 0 14.935822-15.035395V486.409957a14.935823 14.935823 0 0 0-14.935822-14.935822h-59.743291a15.234539 15.234539 0 0 1-10.554648-4.281603z" fill="#FAFAFA" p-id="5963"></path><path d="M281.307997 580.044075m-13.377548-13.377548l-33.514276-33.514276q-13.377547-13.377547 0-26.755094l263.256047-263.256047q13.377547-13.377547 26.755095 0l33.514276 33.514276q13.377547 13.377547 0 26.755094l-263.256047 263.256047q-13.377547 13.377547-26.755095 0Z" fill="#FFFFFF" p-id="5964"></path><path d="M802.971331 519.750665m-13.377547 13.377547l-33.514276 33.514277q-13.377547 13.377547-26.755095 0l-263.256047-263.256048q-13.377547-13.377547 0-26.755094l33.514276-33.514276q13.377547-13.377547 26.755095 0l263.256047 263.256047q13.377547 13.377547 0 26.755094Z" fill="#FFFFFF" p-id="5965"></path></svg>